<svg viewBox="0 0 870 457" fill="none" xmlns="http://www.w3.org/2000/svg">
<path d="M250.121 244.336C280.884 244.336 309.754 235.424 337.432 221.113V122.414L311.239 87.5788H267.584L299.597 131.123V200.793C284.693 206.344 268.94 209.291 253.032 209.501C227.479 209.501 207.951 203.405 195.291 189.326C182.631 175.247 171.542 153.388 171.542 122.414C171.542 91.4397 182.631 68.2453 195.291 54.1662C207.951 40.087 227.304 33.0619 253.672 33.0619C261.85 33.0619 282.135 35.3262 282.135 35.3262L255.942 0.491211C255.942 0.491211 250.82 0.694348 248.725 0.694348C212.52 0.694348 184.833 10.7191 165.663 30.7686C146.513 50.8278 133.649 81.831 133.649 122.414C133.649 162.997 146.455 193.071 165.663 213.246C184.872 233.421 213.684 244.336 250.121 244.336Z" fill="white"/>
<path d="M471.308 0.491211H523.695L439.295 122.414H383.998L471.308 0.491211Z" fill="#085879"/>
<path d="M299.6 0.491211H351.986L439.296 122.414H384L299.6 0.491211Z" fill="#00C4A7"/>
<path d="M558.619 0.491211V61.4525L608.095 131.123V244.336H645.93V131.123L739.061 0.491211H695.405L627.012 95.9973L558.619 0.491211Z" fill="white"/>
<path d="M523.694 0.491211L482.396 60.0591L482.949 244.336H523.694V0.491211Z" fill="white"/>
<g clip-path="url(#clip0_1283_602)">
<path d="M0.142596 329.588C0.142596 296.216 15.8157 279.539 47.1619 279.559C57.6724 279.744 68.0265 282.138 77.5525 286.583V306.795C69.6054 301.059 60.1135 297.852 50.3157 297.592C41.5043 297.592 34.9293 300.058 30.5905 304.989C26.2326 309.92 24.0823 318.12 24.0823 329.588C24.0823 341.057 26.2899 349.17 30.7338 353.958C35.1777 358.746 42.0299 361.126 51.3191 361.126C55.5634 361.043 59.7697 360.308 63.7907 358.947C68.6529 357.325 73.28 355.069 77.5525 352.238V372.307C73.0015 374.543 68.1844 376.19 63.2173 377.21C57.9476 378.404 52.565 379.028 47.1619 379.073C15.7966 379.15 0.123482 362.655 0.142596 329.588Z" fill="white"/>
<path d="M103.499 366.859C95.2613 358.525 91.1519 346.101 91.171 329.587C91.1901 313.073 95.223 300.764 103.27 292.66C111.355 284.192 122.823 279.968 137.674 279.987C152.296 279.987 163.764 284.116 172.079 292.373C180.393 300.63 184.531 313.054 184.493 329.644C184.493 345.91 180.45 358.334 172.365 366.916C164.28 375.498 152.745 379.741 137.76 379.645C123.138 379.416 111.718 375.154 103.499 366.859ZM154.819 353.068C158.642 348.309 160.553 340.424 160.553 329.415C160.553 318.406 158.642 310.55 154.819 305.848C152.71 303.397 150.055 301.476 147.066 300.241C144.078 299.006 140.841 298.491 137.617 298.738C134.419 298.514 131.214 299.046 128.26 300.291C125.306 301.536 122.688 303.46 120.615 305.905C116.831 310.693 114.881 318.635 114.881 329.73C114.881 340.826 116.745 348.424 120.615 353.154C122.84 355.411 125.491 357.204 128.415 358.427C131.339 359.651 134.476 360.281 137.646 360.281C140.815 360.281 143.953 359.651 146.876 358.427C149.8 357.204 152.451 355.411 154.676 353.154L154.819 353.068Z" fill="white"/>
<path d="M284.266 281.71V377.326H266.777L222.194 319.096V377.326H200.835V281.71H220.617L262.964 338.535V281.71H284.266Z" fill="white"/>
<path d="M317.81 377.813C312.617 376.865 307.594 375.155 302.901 372.738V350.633C307.282 354.142 312.252 356.841 317.581 358.604C322.767 360.44 328.22 361.408 333.722 361.471C342.686 361.471 347.178 358.087 347.197 351.321C347.206 349.873 346.808 348.452 346.048 347.22C345.287 345.988 344.195 344.995 342.896 344.354C338.455 342.003 333.799 340.083 328.991 338.62C326.124 337.646 324.203 337.015 323.544 336.757C317.474 334.923 311.904 331.726 307.259 327.41C303.303 323.511 301.324 317.662 301.324 309.95C301.276 304.635 302.662 299.405 305.338 294.812C308.233 289.954 312.531 286.086 317.667 283.717C324.082 280.752 331.102 279.328 338.166 279.559C343.053 279.476 347.933 279.977 352.702 281.05C357.18 282.208 361.531 283.812 365.689 285.838V308.086C361.704 305.045 357.374 302.485 352.788 300.46C348.398 298.562 343.665 297.586 338.883 297.593C335.338 297.419 331.82 298.286 328.762 300.087C327.55 300.85 326.561 301.921 325.896 303.19C325.231 304.459 324.914 305.881 324.978 307.312C324.928 308.432 325.106 309.551 325.5 310.6C325.895 311.65 326.497 312.608 327.271 313.419C328.879 315.055 330.841 316.3 333.005 317.06C335.241 317.949 338.739 319.125 343.843 320.644C348.905 322.034 353.807 323.956 358.464 326.378C362.196 328.43 365.351 331.388 367.639 334.979C370.088 339.087 371.284 343.82 371.079 348.598C371.144 354.114 369.76 359.552 367.066 364.366C364.278 369.135 360.164 372.99 355.225 375.462C349.511 378.294 343.193 379.691 336.818 379.533C330.443 379.545 324.08 378.969 317.81 377.813Z" fill="white"/>
<path d="M398.231 370.875C390.948 364.539 387.336 354.819 387.336 341.602V281.71H411.562V340.599C411.562 347.967 413.025 353.414 416.006 356.97C418.988 360.525 423.69 362.274 430.198 362.274C432.772 362.429 435.349 362.022 437.75 361.081C440.152 360.14 442.319 358.689 444.103 356.826C447.666 352.2 449.401 346.423 448.977 340.599V281.71H471.053V341.602C471.053 354.504 467.489 364.185 460.359 370.645C453.23 377.106 443.558 380.326 431.345 380.307C416.57 380.307 405.532 377.163 398.231 370.875Z" fill="white"/>
<path d="M491.409 281.71H514.632V359.12H556.204V377.326H491.409V281.71Z" fill="white"/>
<path d="M577.564 299.629H550.757V281.71H628.023V299.629H600.787V377.326H577.564V299.629Z" fill="white"/>
<path d="M641.642 281.71H664.836V377.326H641.642V281.71Z" fill="white"/>
<path d="M768.622 281.71V377.326H751.133L706.551 319.096V377.326H685.191V281.71H704.974L747.263 338.535V281.71H768.622Z" fill="white"/>
<path d="M797.149 367.203C789.045 359.156 784.983 346.589 784.964 329.501C784.945 312.414 789.054 299.837 797.292 291.771C805.53 283.572 816.95 279.472 831.553 279.472C843.283 279.494 854.887 281.883 865.671 286.496V307.54C860.256 304.597 854.631 302.057 848.841 299.942C844.228 298.352 839.386 297.529 834.506 297.505C825.905 297.505 819.34 299.942 815.096 304.759C810.853 309.576 808.703 317.775 808.703 329.329C808.703 340.884 810.853 348.854 815.154 353.785C817.466 356.309 820.315 358.284 823.49 359.564C826.665 360.844 830.086 361.397 833.503 361.182C838.017 361.396 842.522 360.603 846.691 358.86V341.944H830.922V323.911H869.914V368.894C858.262 375.585 845.075 379.141 831.639 379.216C816.788 379.273 805.291 375.269 797.149 367.203Z" fill="white"/>
<path d="M148.283 450.863C144.575 446.906 142.721 440.943 142.721 432.972C142.721 425.002 144.575 419.077 148.283 415.197C150.407 413.141 152.938 411.554 155.713 410.537C158.489 409.519 161.446 409.095 164.395 409.291C169.676 409.253 174.904 410.338 179.734 412.473V419.755C177.283 418.564 174.754 417.539 172.165 416.688C169.966 415.994 167.676 415.637 165.37 415.627C163.273 415.43 161.158 415.698 159.176 416.411C157.193 417.125 155.393 418.267 153.902 419.755C151.482 423.739 150.203 428.311 150.203 432.972C150.203 437.634 151.482 442.205 153.902 446.189C155.342 447.64 157.08 448.761 158.996 449.474C160.912 450.187 162.959 450.475 164.998 450.318C167.971 450.38 170.932 449.914 173.742 448.942V437.99H164.109V431.539H181.311V452.583C176.073 455.351 170.234 456.789 164.309 456.769C161.374 456.954 158.432 456.524 155.673 455.507C152.913 454.49 150.396 452.908 148.283 450.863Z" fill="white"/>
<path d="M309.782 456.082L299.06 438.88H289.34V456.082H281.771V410.209H302.156C306.141 409.931 310.085 411.17 313.194 413.678C314.535 415.029 315.569 416.653 316.227 418.439C316.885 420.224 317.151 422.131 317.007 424.028C317.007 427.13 316.001 430.148 314.14 432.63C312.381 435.065 309.772 436.753 306.829 437.36L319.072 456.025L309.782 456.082ZM289.34 432.544H300.006C302.441 432.739 304.862 432.024 306.801 430.537C307.59 429.751 308.198 428.802 308.584 427.758C308.97 426.713 309.125 425.597 309.037 424.487C309.202 422.356 308.545 420.243 307.202 418.581C306.412 417.844 305.475 417.284 304.451 416.937C303.428 416.591 302.342 416.468 301.267 416.574H289.34V432.544Z" fill="white"/>
<path d="M418.844 450.808C415.175 446.794 413.34 440.888 413.34 433.032C413.34 425.176 415.146 419.328 418.787 415.314C420.843 413.222 423.327 411.601 426.069 410.562C428.811 409.523 431.745 409.09 434.671 409.293C437.594 409.101 440.525 409.533 443.269 410.561C446.012 411.59 448.505 413.19 450.583 415.256C454.252 419.213 456.087 425.138 456.087 433.032C456.087 440.926 454.262 446.832 450.611 450.75C446.221 454.611 440.574 456.74 434.728 456.74C428.881 456.74 423.235 454.611 418.844 450.75V450.808ZM444.963 446.077C447.466 442.189 448.615 437.583 448.232 432.975C448.616 428.39 447.455 423.808 444.935 419.958C442.153 417.362 438.49 415.919 434.685 415.919C430.88 415.919 427.217 417.362 424.435 419.958C422.252 423.97 421.108 428.465 421.108 433.032C421.108 437.599 422.252 442.094 424.435 446.106C427.209 448.729 430.882 450.191 434.699 450.191C438.517 450.191 442.19 448.729 444.963 446.106V446.077Z" fill="white"/>
<path d="M559.558 452.183C557.793 450.261 556.442 447.997 555.588 445.531C554.735 443.065 554.398 440.45 554.598 437.848V410.21H562.396V437.992C562.127 441.438 563.149 444.861 565.263 447.596C566.365 448.695 567.691 449.543 569.151 450.083C570.61 450.622 572.169 450.84 573.721 450.721C581.366 450.721 585.189 446.478 585.189 437.992V410.21H592.5V438.078C592.68 440.647 592.339 443.226 591.496 445.66C590.654 448.094 589.328 450.333 587.598 452.241C585.802 453.93 583.681 455.236 581.365 456.079C579.048 456.922 576.584 457.284 574.122 457.143C571.487 457.328 568.841 456.984 566.34 456.133C563.839 455.281 561.533 453.938 559.558 452.183Z" fill="white"/>
<path d="M700.215 456.081H692.646V410.209H710.794C715.165 409.926 719.491 411.229 722.979 413.879C724.45 415.255 725.596 416.942 726.335 418.816C727.074 420.691 727.386 422.706 727.251 424.716C727.379 426.758 727.061 428.803 726.318 430.709C725.575 432.616 724.426 434.337 722.95 435.754C719.538 438.547 715.194 439.94 710.794 439.653H700.215V456.081ZM709.848 433.145C711.177 433.297 712.523 433.178 713.805 432.793C715.086 432.409 716.276 431.768 717.302 430.909C718.704 429.257 719.431 427.138 719.338 424.974C719.453 422.746 718.727 420.556 717.302 418.839C716.283 417.967 715.095 417.316 713.812 416.926C712.529 416.537 711.179 416.417 709.848 416.574H700.215V433.145H709.848Z" fill="white"/>
</g>
<defs>
<clipPath id="clip0_1283_602">
<rect width="869.715" height="177.441" fill="white" transform="translate(0.142578 279.559)"/>
</clipPath>
</defs>
</svg>
